<?xml version="1.0" standalone="no"?><!DOCTYPE svg PUBLIC "-//W3C//DTD SVG 1.1//EN" "http://www.w3.org/Graphics/SVG/1.1/DTD/svg11.dtd"><svg t="1572188450998" class="icon" viewBox="0 0 1024 1024" version="1.1" xmlns="http://www.w3.org/2000/svg" p-id="10599" xmlns:xlink="http://www.w3.org/1999/xlink" width="200" height="200"><defs><style type="text/css"></style></defs><path d="M911.2 823.2H796c-8.8 0-15.2-7.2-15.2-15.2V605.6c0-8.8 7.2-15.2 15.2-15.2H912c8.8 0 15.2 7.2 15.2 15.2V808c0 8-7.2 15.2-16 15.2zM811.2 792H896V621.6h-84.8V792zM228 823.2H111.2c-8.8 0-15.2-7.2-15.2-15.2V605.6c0-8.8 7.2-15.2 15.2-15.2h116.8c8.8 0 15.2 7.2 15.2 15.2V808c0.8 8-6.4 15.2-15.2 15.2zM126.4 792h86.4V621.6H126.4V792z" p-id="10600"></path><path d="M988.8 528v356.8h-57.6V528h57.6m0-30.4h-57.6c-16.8 0-31.2 13.6-31.2 31.2v356.8c0 16.8 13.6 31.2 31.2 31.2h57.6c16.8 0 31.2-13.6 31.2-31.2V528c0-16.8-13.6-30.4-31.2-30.4zM92 528v356.8H35.2V528h56.8m0-30.4H35.2c-16.8 0-31.2 13.6-31.2 31.2v356.8c0 16.8 13.6 31.2 31.2 31.2h57.6c16.8 0 31.2-13.6 31.2-31.2V528c-0.8-16.8-14.4-30.4-32-30.4zM591.2 440H432.8c-8.8 0-15.2-7.2-15.2-15.2V315.2c0-8.8 7.2-15.2 15.2-15.2h158.4c8.8 0 15.2 7.2 15.2 15.2v109.6c0 8.8-6.4 15.2-15.2 15.2z m-142.4-30.4H576v-79.2H448.8v79.2zM724.8 131.2H299.2c-8.8 0-15.2-7.2-15.2-15.2V35.2c0-8.8 7.2-15.2 15.2-15.2h424.8c8.8 0 15.2 7.2 15.2 15.2v80.8c0.8 8-6.4 15.2-14.4 15.2z m-409.6-31.2h393.6V50.4H315.2v49.6z" p-id="10601"></path><path d="M547.2 330.4h-70.4c-8.8 0-15.2-7.2-15.2-15.2V116c0-8.8 7.2-15.2 15.2-15.2h70.4c8.8 0 15.2 7.2 15.2 15.2v199.2c0 8-6.4 15.2-15.2 15.2z m-55.2-31.2h39.2v-168h-39.2v168zM629.6 1004.8H394.4c-4 0-8-1.6-11.2-4.8l-166.4-165.6c-3.2-3.2-4.8-7.2-4.8-11.2V590.4c0-4 1.6-8 4.8-11.2l166.4-165.6c3.2-3.2 7.2-4.8 11.2-4.8h235.2c4 0 8 1.6 11.2 4.8l166.4 165.6c3.2 3.2 4.8 7.2 4.8 11.2V824c0 4-1.6 8-4.8 11.2L640.8 1000c-3.2 3.2-7.2 4.8-11.2 4.8z m-228.8-31.2h222.4l156.8-156V596.8L623.2 440H400.8L244 596.8v220.8l156.8 156z" p-id="10602"></path><path d="M604 934.4h-184c-2.4 0-4-0.8-5.6-2.4l-129.6-128.8c-1.6-1.6-2.4-3.2-2.4-5.6V616c0-2.4 0.8-4 2.4-5.6l129.6-128.8c1.6-1.6 3.2-2.4 5.6-2.4h184c2.4 0 4 0.8 5.6 2.4l129.6 128.8c1.6 1.6 2.4 3.2 2.4 5.6v182.4c0 2.4-0.8 4-2.4 5.6l-129.6 128.8c-1.6 0.8-4 1.6-5.6 1.6z m-180.8-15.2h177.6l124.8-124.8v-176L600.8 494.4H423.2L298.4 619.2v176l124.8 124z" p-id="10603"></path></svg>